<?xml version="1.0" encoding="UTF-8" standalone="no"?>
<svg
   version="1.0"
   width="256.000000pt"
   height="256.000000pt"
   viewBox="0 0 256.000000 256.000000"
   preserveAspectRatio="xMidYMid meet"
   id="svg3"
   sodipodi:docname="icon.svg"
   inkscape:version="1.3.2 (091e20e, 2023-11-25, custom)"
   xmlns:inkscape="http://www.inkscape.org/namespaces/inkscape"
   xmlns:sodipodi="http://sodipodi.sourceforge.net/DTD/sodipodi-0.dtd"
   xmlns="http://www.w3.org/2000/svg"
   xmlns:svg="http://www.w3.org/2000/svg">
  <defs
     id="defs3" />
  <sodipodi:namedview
     id="namedview3"
     pagecolor="#ffffff"
     bordercolor="#111111"
     borderopacity="1"
     inkscape:showpageshadow="0"
     inkscape:pageopacity="0"
     inkscape:pagecheckerboard="1"
     inkscape:deskcolor="#d1d1d1"
     inkscape:document-units="pt"
     inkscape:zoom="2.4052734"
     inkscape:cx="170.66667"
     inkscape:cy="170.66667"
     inkscape:window-width="1920"
     inkscape:window-height="1017"
     inkscape:window-x="-8"
     inkscape:window-y="-8"
     inkscape:window-maximized="1"
     inkscape:current-layer="svg3" />
  <g
     transform="translate(0.000000,256.000000) scale(0.100000,-0.100000)"
     fill="#ff0066"
     stroke="none"
     id="g3"
     style="fill:#ff0066">
    <path
       d="M1053 2545 c-398 -73 -743 -335 -927 -702 -170 -340 -170 -786 0 -1126 183 -367 516 -620 916 -698 123 -24 329 -25 454 -4 536 93 958 514 1050 1049 22 128 15 388 -14 507 -123 503 -529 887 -1030 974 -104 18 -348 18 -449 0z m445 -111 c85 -15 228 -61 295 -95 89 -46 229 -150 313 -234 339 -336 438 -812 264 -1262 -75 -195 -262 -418 -463 -550 -163 -108 -327 -165 -525 -181 -353 -30 -673 88 -928 342 -205 206 -322 453 -342 724 -27 363 87 672 342 928 283 283 649 398 1044 328z"
       id="path1"
       style="fill:#ff0066" />
    <path
       d="M1071 2329 c-124 -22 -296 -94 -406 -169 -185 -128 -346 -354 -410 -576 -38 -130 -52 -346 -31 -470 26 -148 77 -277 159 -399 258 -383 710 -562 1142 -451 366 95 676 404 771 771 58 220 23 507 -87 727 -45 91 -64 108 -116 108 -53 0 -83 -26 -83 -71 0 -17 20 -71 44 -119 27 -54 53 -127 67 -185 19 -85 21 -115 16 -243 -5 -136 -8 -155 -40 -245 -20 -53 -48 -119 -64 -145 l-28 -47 -5 165 c-3 104 -10 173 -17 187 -7 11 -33 31 -58 43 -25 12 -45 24 -45 26 0 2 15 10 34 18 63 26 71 50 71 226 0 170 -9 211 -53 252 -43 40 -83 48 -248 48 l-154 0 0 -565 0 -565 160 0 c100 0 160 -4 160 -10 0 -12 -111 -95 -163 -121 -68 -35 -201 -80 -282 -96 -202 -39 -444 16 -634 145 -47 31 -86 63 -89 70 -3 9 14 12 62 12 l66 0 0 500 0 499 73 3 72 3 3 63 3 62 -211 0 c-115 0 -210 4 -210 8 0 15 147 167 202 209 109 83 250 142 392 164 87 14 274 6 336 -14 25 -8 66 -20 91 -27 42 -11 48 -16 60 -52 7 -23 29 -54 53 -74 33 -29 47 -34 88 -34 86 0 140 46 157 133 10 57 -18 121 -69 155 -31 21 -44 23 -104 19 -52 -3 -81 0 -115 13 -120 47 -153 53 -331 56 -96 2 -199 -1 -229 -7z m-480 -679 l69 0 0 -490 c0 -269 -4 -490 -8 -490 -27 0 -133 149 -174 245 -52 120 -69 198 -83 370 -10 128 30 305 94 415 l26 45 3 -47 3 -48 70 0z m1220 -19 c22 -18 24 -28 27 -127 6 -172 -16 -210 -119 -202 l-44 3 -3 160 c-1 87 0 165 2 172 9 21 109 17 137 -6z m13 -482 l26 -20 0 -159 c0 -129 -3 -160 -15 -170 -19 -15 -103 -25 -139 -16 l-26 6 0 184 c0 100 3 186 7 189 3 4 32 7 63 7 43 0 64 -5 84 -21z"
       id="path2"
       style="fill:#ff0066" />
    <path
       d="M1050 1215 l0 -565 185 0 185 0 0 65 0 64 -107 3 -108 3 0 190 0 190 98 3 98 3 -3 62 -3 62 -97 3 -98 3 0 174 0 175 110 0 110 0 0 65 0 65 -185 0 -185 0 0 -565z"
       id="path3"
       style="fill:#ff0066" />
  </g>
</svg>
